PathFileType  4	(X/Y/Z) C:\Users\antoi\Documents\MyRepositories\mobilecap\ResultsAnalysis
DataRate	CameraRate	NumFrames	NumMarkers	Units	OrigDataRate	OrigDataStartFrame	OrigNumFrames
100.0	100.0	7	51	mm	100.0	207	275
Frame#	Time	r_knee			r_shank_antsup			r_ankle			r_calc			r_5meta			r_toe			L_knee			L_shank_antsup			L_ankle			L_calc			L_5meta			L_toe			r_sh2			r_sh3			r_sh4			L_sh2			L_sh3			r_thigh1			r_thigh2			r_thigh3			r_thigh4			r_thigh5			L_thigh1			L_thigh2			L_thigh3			L_thigh4			r.ASIS			r.PSIS			L.ASIS			L.PSIS			C7			R_Shoulder			L_Shoulder			R_Sternum			L_Sternum			R_humerus			R_elbow_med			R_elbow_lat			R_forearm			R_wrist_radius			R_wrist_ulna			L_humerus			L_elbow_med			L_elbow_lat			L_forearm			L_wrist_radius			L_wrist_ulna			R_HJC			L_HJC			R_HJC_reg			L_HJC_reg			
		X1	Y1	Z1	X2	Y2	Z2	X3	Y3	Z3	X4	Y4	Z4	X5	Y5	Z5	X6	Y6	Z6	X7	Y7	Z7	X8	Y8	Z8	X9	Y9	Z9	X10	Y10	Z10	X11	Y11	Z11	X12	Y12	Z12	X13	Y13	Z13	X14	Y14	Z14	X15	Y15	Z15	X16	Y16	Z16	X17	Y17	Z17	X18	Y18	Z18	X19	Y19	Z19	X20	Y20	Z20	X21	Y21	Z21	X22	Y22	Z22	X23	Y23	Z23	X24	Y24	Z24	X25	Y25	Z25	X26	Y26	Z26	X27	Y27	Z27	X28	Y28	Z28	X29	Y29	Z29	X30	Y30	Z30	X31	Y31	Z31	X32	Y32	Z32	X33	Y33	Z33	X34	Y34	Z34	X35	Y35	Z35	X36	Y36	Z36	X37	Y37	Z37	X38	Y38	Z38	X39	Y39	Z39	X40	Y40	Z40	X41	Y41	Z41	X42	Y42	Z42	X43	Y43	Z43	X44	Y44	Z44	X45	Y45	Z45	X46	Y46	Z46	X47	Y47	Z47	X48	Y48	Z48	X49	Y49	Z49	X50	Y50	Z50	X51	Y51	Z51	

207	2.06000000	-277.33305	768.26688	-388.69918	-231.68781	664.97617	-380.90578	-272.89022	384.14863	-393.66505	-298.58492	394.66121	-458.21428	-231.46949	258.49125	-357.94038	-177.89813	249.97861	-378.83988	-278.86152	776.51903	-802.81340	-229.19869	677.82306	-778.28364	-299.48266	398.99242	-820.40360	-330.36412	409.67090	-768.10832	-260.41449	260.54880	-837.48888	-205.30304	250.76711	-800.76534	-223.59493	554.49148	-380.35879	-301.32232	657.92390	-352.66220	-305.57893	546.67706	-369.78738	-291.45126	704.63732	-836.62769	-296.34361	584.44623	-859.00773	-203.04849	1074.67958	-399.05769	-197.46857	967.38428	-384.32031	-250.66146	939.85669	-356.07864	-314.89953	1065.20056	-388.12975	-303.80089	951.23646	-370.99659	-218.36042	1066.08392	-792.64404	-206.69862	931.73195	-809.96792	-329.52151	1067.07398	-800.23194	-316.52432	926.56550	-809.87977	-156.34073	1216.16242	-466.62130	-323.97382	1296.55584	-533.19508	-161.15367	1227.89119	-715.65548	-329.76611	1303.26435	-645.27286	-279.32870	1743.51844	-573.60157	-235.27187	1763.96126	-485.18932	-216.59560	1776.87902	-672.05269	-147.38321	1696.06669	-564.89129	-145.23350	1692.43140	-583.46376	-201.34055	1812.49093	-409.53590	-126.40361	1825.64290	-216.03729	-171.97433	1881.71848	-234.27110	-111.21470	1994.81396	-213.49094	-51.84892	2075.29443	-201.81751	-48.41817	2072.85227	-173.66511	-177.36364	1830.71525	-766.54455	-98.97811	1838.19391	-951.28582	-146.69902	1889.69793	-935.09191	-108.65627	1977.88137	-967.20771	-44.89806	2066.32458	-1044.39841	-65.76655	2060.45008	-1067.97399	-258.03444	1165.12509	-495.93321	-257.32377	1169.34694	-685.26291	-239.49509	1161.78642	-500.70102	-247.97083	1171.60338	-664.76371	
208	2.07000000	-281.00429	783.10982	-389.47599	-234.84194	679.56208	-380.84106	-273.63109	398.11045	-394.64757	-297.79115	409.00659	-460.32359	-232.23492	272.77678	-358.51369	-178.08689	264.79534	-378.11412	-283.80896	791.50322	-801.79975	-231.69086	693.30111	-779.72987	-299.19978	413.43517	-819.68588	-328.66965	423.02052	-766.06930	-258.75482	276.14450	-840.05182	-202.50705	266.36891	-804.85703	-225.77241	569.03743	-380.11432	-305.11591	671.71155	-354.12494	-307.66313	560.44871	-371.28352	-297.05469	718.88569	-835.04206	-300.63034	598.33600	-857.18557	-202.23503	1088.17588	-398.32114	-198.51435	980.68036	-383.69040	-252.38566	953.93176	-356.22677	-314.19165	1080.84384	-387.35631	-305.22447	966.49790	-371.42838	-216.74622	1079.83985	-790.59896	-207.29394	945.27558	-807.87634	-327.59664	1082.90074	-799.91373	-317.20033	942.11912	-808.48290	-155.96786	1232.87071	-463.30930	-323.72378	1308.97249	-532.46838	-160.02128	1243.77973	-714.80025	-329.25385	1315.04740	-644.66334	-280.09801	1760.43723	-573.78229	-235.62945	1777.58641	-483.99406	-216.23108	1791.48854	-673.23539	-150.74417	1708.21105	-566.20066	-148.63775	1703.98604	-583.75704	-204.95814	1824.04043	-403.48929	-135.97477	1827.35798	-207.49346	-181.45874	1884.20547	-224.41856	-120.96280	1995.88722	-196.35965	-61.77056	2075.38463	-178.13500	-58.57009	2071.79116	-147.00779	-178.85292	1843.63781	-773.19112	-109.15299	1843.19451	-961.62080	-155.63848	1896.27043	-945.63096	-117.00054	1982.86789	-983.54633	-54.82154	2066.51502	-1064.89566	-77.89552	2060.52034	-1087.51875	-255.87617	1179.38759	-494.24741	-254.28997	1182.87948	-683.58566	-237.75343	1176.00647	-497.87416	-245.92360	1184.98342	-663.59117	
209	2.08000000	-283.80686	796.62763	-390.16790	-239.38133	692.84323	-379.15328	-274.41336	410.68069	-396.13142	-296.89279	422.27272	-462.35568	-233.67131	286.05114	-359.00744	-178.79847	278.58121	-377.07915	-287.91471	805.22827	-800.14242	-234.11887	707.67001	-784.16737	-299.33000	426.85447	-818.21635	-327.05321	435.68059	-763.79808	-258.19144	290.70685	-842.18115	-200.74606	280.82162	-808.99115	-229.23600	582.31530	-378.78154	-310.96294	684.09810	-356.29028	-311.36493	573.10589	-373.59673	-305.23180	731.12322	-833.06462	-308.16951	610.40965	-854.40055	-201.53457	1101.53099	-397.72540	-198.52919	993.95390	-383.31510	-252.58320	967.64069	-355.84427	-313.50375	1095.01525	-386.62105	-305.32067	980.61653	-370.87305	-216.21087	1094.10418	-788.94839	-207.09083	959.44023	-806.33176	-327.06292	1097.69635	-798.87441	-316.99742	956.52118	-807.27758	-155.32922	1247.73506	-461.40590	-323.44821	1320.93843	-531.84756	-158.92112	1258.17205	-712.92272	-328.82601	1326.45376	-644.37083	-280.85712	1775.42528	-574.23497	-236.65582	1791.03442	-482.73066	-216.43870	1805.17614	-674.24462	-153.01672	1722.00296	-566.72687	-150.51383	1717.07829	-583.27421	-210.13538	1834.74973	-397.26827	-146.04417	1827.57092	-200.09120	-191.41680	1885.45668	-215.59387	-130.77455	1995.08490	-180.26249	-71.06370	2074.14086	-155.51538	-69.83448	2068.20309	-124.87044	-180.65513	1855.16081	-779.54570	-119.69870	1846.56935	-970.50705	-165.28526	1901.69433	-955.70041	-125.46512	1985.76356	-997.78519	-65.31139	2064.68170	-1084.01539	-90.16070	2058.28006	-1105.81505	-254.16924	1192.61801	-492.84802	-251.77544	1195.57524	-682.18744	-236.04735	1189.85053	-495.89528	-243.97098	1197.97808	-661.66815	
210	2.09000000	-285.37184	808.67923	-390.40362	-243.84449	704.92829	-377.07736	-275.33356	422.49041	-397.50690	-296.63557	434.56321	-463.71250	-235.51447	298.45400	-359.21559	-180.13203	291.21057	-375.97676	-289.96875	817.90290	-798.90675	-235.88817	720.82681	-789.19995	-299.91251	439.23528	-816.38733	-326.06929	447.89367	-761.80985	-258.93426	303.92596	-843.41316	-200.51274	293.85617	-811.99586	-232.93893	594.49983	-377.23623	-316.59865	695.68767	-358.36134	-315.40081	584.88426	-376.16509	-312.78486	742.23493	-830.33777	-315.79851	621.80999	-851.51456	-201.04300	1114.32327	-396.84075	-197.67318	1006.67585	-383.18830	-251.42977	980.29914	-354.98658	-312.98265	1107.33471	-385.76717	-304.33662	992.96159	-369.60768	-216.31296	1107.92283	-788.13183	-206.23449	973.18637	-805.50713	-327.45292	1110.66543	-797.56708	-316.11593	969.47669	-806.28419	-154.44810	1260.62160	-460.72325	-323.01161	1332.42544	-531.43143	-157.92492	1270.97708	-710.73965	-328.58613	1337.60699	-643.82325	-281.75117	1788.25353	-574.71256	-238.06613	1804.29574	-481.45215	-217.14262	1818.12448	-675.51240	-154.03919	1736.49475	-566.65247	-150.79513	1731.77123	-582.35960	-215.48592	1844.67306	-391.52481	-156.69544	1826.48760	-193.68340	-201.93505	1885.88739	-207.01945	-140.85470	1992.80803	-164.08341	-79.68787	2071.02060	-132.53107	-80.55158	2062.08600	-101.73568	-182.47961	1865.45419	-785.22407	-130.69115	1848.34369	-977.95128	-175.06282	1905.82548	-964.34105	-134.09279	1986.69184	-1010.08633	-75.49547	2060.49523	-1101.84627	-102.53039	2054.07405	-1121.76373	-252.90346	1204.71100	-491.80059	-250.05938	1207.45131	-681.13748	-234.38293	1202.82846	-494.66639	-242.55552	1210.42437	-659.45729	
211	2.10000000	-285.91160	819.53661	-389.91130	-246.88796	716.01902	-375.43012	-276.68784	433.75379	-398.08409	-297.27051	446.12380	-464.40614	-237.79945	309.95461	-359.10753	-182.22692	302.53199	-375.07579	-290.28963	829.72204	-798.86072	-236.73161	732.80121	-792.78622	-300.72207	450.84227	-815.31405	-326.05763	459.65401	-760.89343	-260.65020	315.69288	-843.83193	-201.75191	305.33139	-813.26689	-235.94655	605.73042	-375.95558	-320.32760	706.89126	-359.64430	-318.46101	595.95537	-378.15565	-316.98834	753.32572	-828.14029	-320.77297	633.18524	-849.56312	-200.45884	1125.95599	-395.96780	-196.29495	1018.16845	-383.21475	-249.51088	991.55153	-354.02585	-312.39331	1118.00436	-384.71470	-302.79756	1003.71368	-367.97483	-216.87365	1120.56607	-788.42895	-205.20754	985.81017	-805.16172	-328.15622	1121.78697	-795.95267	-315.05408	980.96519	-805.66709	-153.56522	1271.76512	-460.70916	-322.49780	1343.18188	-530.94190	-157.03826	1282.27067	-708.63291	-328.48249	1348.33370	-643.08916	-282.73111	1799.28298	-575.11067	-239.38565	1816.83216	-480.25555	-218.31498	1830.25259	-677.02806	-154.76723	1749.36994	-566.46234	-150.26929	1746.86466	-581.69185	-219.98579	1853.75146	-386.51530	-167.88271	1824.33723	-188.06274	-212.59249	1885.16290	-199.00735	-151.29042	1988.90338	-148.13161	-89.48738	2064.98324	-110.20653	-92.24042	2053.49897	-79.23675	-184.29534	1874.33802	-789.61221	-142.17658	1848.65682	-984.26829	-183.56727	1908.14606	-969.38218	-142.75839	1985.90408	-1020.90680	-85.61403	2053.12764	-1119.19607	-115.07993	2047.86538	-1136.27217	-252.04907	1215.62929	-490.99492	-249.03022	1218.41916	-680.32799	-232.90628	1214.52712	-493.98188	-241.62516	1222.03053	-657.36958	
212	2.11000000	-285.59341	829.56379	-388.88826	-247.87237	726.28424	-374.31259	-278.66578	444.35250	-397.69613	-298.83668	456.97714	-464.41307	-240.47677	320.40658	-358.87629	-184.91644	312.49147	-374.79847	-289.53393	840.55795	-799.46833	-236.31980	743.46296	-793.96162	-301.57081	461.76227	-815.36650	-327.04573	470.80731	-761.22019	-262.73739	326.14568	-843.71169	-203.93886	315.36714	-813.01440	-237.58964	616.04452	-375.11222	-321.59407	717.64509	-359.62734	-319.98335	606.58564	-378.46871	-317.14795	764.41547	-827.54920	-322.00066	644.18165	-848.81634	-199.39489	1136.19484	-395.48041	-194.72657	1028.32725	-383.04421	-247.39572	1001.61076	-353.12182	-311.35046	1127.60148	-383.40849	-300.99469	1013.53034	-366.14631	-217.63800	1131.81793	-789.43594	-204.41396	997.14232	-805.13963	-328.77627	1131.63525	-794.32798	-314.20814	991.05605	-805.33056	-152.78046	1281.55810	-460.87357	-322.00508	1353.19148	-530.19804	-156.33178	1292.28459	-706.90215	-328.36058	1358.35273	-642.53469	-283.78001	1809.17557	-575.58507	-240.35297	1828.51926	-479.15878	-219.62185	1841.35433	-678.32629	-155.88660	1760.39755	-566.57203	-149.78410	1761.09643	-581.41106	-223.03553	1861.37530	-382.25110	-179.55522	1821.28314	-183.18383	-222.93005	1883.18658	-192.29031	-162.02394	1983.10676	-133.83533	-100.78809	2055.93719	-89.51280	-105.76279	2042.84609	-59.41544	-186.41617	1881.51266	-792.78559	-154.10492	1847.64989	-989.61645	-190.95232	1908.67074	-971.58916	-151.50687	1983.35024	-1030.63754	-97.72409	2042.32921	-1135.15870	-127.73145	2039.52488	-1150.26683	-251.49088	1225.52436	-490.33911	-248.46456	1228.43433	-679.67064	-231.84725	1225.10454	-493.54612	-241.01920	1232.55357	-655.66584	
213	2.12000000	-284.47024	838.94693	-387.69985	-247.06157	735.72616	-373.66698	-281.13065	454.35201	-396.43756	-301.15604	466.97135	-463.52895	-243.11082	329.69081	-358.60394	-187.71562	321.30911	-375.05526	-287.77903	850.31168	-799.89104	-234.54823	752.69075	-792.96767	-302.41656	471.87417	-816.39064	-328.50804	481.18317	-762.17804	-264.72851	335.52014	-843.32232	-206.46841	324.20465	-811.90039	-237.71387	625.37687	-374.67822	-320.73647	727.65635	-358.09712	-320.16190	616.68621	-376.85385	-314.39652	774.52501	-828.07153	-320.02434	654.29375	-849.38196	-197.76828	1145.33496	-395.32611	-193.01476	1037.50081	-382.77632	-245.21081	1010.84921	-352.17247	-309.65917	1136.65974	-381.90948	-298.91287	1022.74038	-364.40353	-218.13701	1141.70034	-790.22354	-203.84665	1007.18083	-805.41795	-329.12407	1140.57063	-793.07691	-313.58276	1000.00702	-805.14634	-151.81650	1290.27424	-461.32834	-321.50728	1362.62200	-529.28004	-155.93648	1301.26873	-705.87405	-328.16907	1367.55353	-642.02592	-284.92165	1818.27528	-576.11417	-240.69690	1839.33341	-477.93502	-220.87072	1851.35786	-679.52221	-157.14243	1770.80871	-567.35746	-149.66289	1773.78155	-581.37227	-224.94925	1867.34178	-378.23415	-191.82548	1817.52485	-178.91342	-233.04000	1880.49590	-186.83360	-173.02844	1975.80637	-121.32128	-112.70150	2044.85323	-70.31814	-120.33913	2030.64884	-41.34579	-189.02942	1887.04609	-795.70504	-166.30430	1845.40475	-993.87366	-199.06606	1907.98428	-974.61847	-160.54219	1979.01556	-1040.10410	-112.02828	2029.33231	-1148.45190	-140.33024	2029.19637	-1163.28920	-250.91480	1234.56877	-489.87018	-248.32604	1237.58888	-679.20634	-231.13005	1234.94625	-493.36822	-240.65180	1241.99732	-654.51950	
